<svg id="Calque_1" data-name="Calque 1" xmlns="http://www.w3.org/2000/svg" xmlns:xlink="http://www.w3.org/1999/xlink" viewBox="0 0 73.94 180.87"><defs><style>.cls-1{fill:none;}.cls-2{fill:#d87171;}.cls-3{clip-path:url(#clip-path);}</style><clipPath id="clip-path"><rect class="cls-1" x="73.33" y="696.2" width="354" height="154"/></clipPath></defs><title>source</title><path class="cls-2" d="M58.87,36v0H14.12v.18a15.19,15.19,0,0,0-13,15V98a7.6,7.6,0,1,0,15.19,0V56.88h2.21V172.77a8,8,0,1,0,16.08,0V106.44h3.74v66.33a8,8,0,0,0,16.08,0V56.88h3.7V98a7.6,7.6,0,1,0,15.19,0V51.12A15.17,15.17,0,0,0,58.87,36Z"/><circle class="cls-2" cx="36.23" cy="15.49" r="15.12"/></svg>