<svg id="Calque_1" data-name="Calque 1" xmlns="http://www.w3.org/2000/svg" viewBox="0 0 109.53 174.21"><defs><style>.cls-1{fill:#eea641;}</style></defs><title>source</title><circle class="cls-1" cx="57.89" cy="15.49" r="15.12"/><path class="cls-1" d="M68.33,63l5.85,12.47L99.3,95.59a6.35,6.35,0,0,0,8.76-.65,6.17,6.17,0,0,0-.84-8.82L83.3,67,70.24,39.11h0a3.74,3.74,0,0,0-3-2.13L45.48,34.75a3.82,3.82,0,0,0-4,2.49,6.89,6.89,0,0,1-1.39,2.25l-.13.14L19.59,61.52l-.39.6L7.82,89.56a5.41,5.41,0,0,0,2.29,6.86,5.26,5.26,0,0,0,7.34-2.62L28.76,66.53,39.49,55.79,35.07,98.85A.61.61,0,0,0,35,99l-8.61,32.28L2.24,157.36a7.23,7.23,0,0,0,0,10,7,7,0,0,0,10.11-.23L37.6,139.89l-.15-.14a4.17,4.17,0,0,0,1.94-2.55l8.55-32,18.22,31.57,9.52,32.16A7.23,7.23,0,0,0,84.31,174a7,7,0,0,0,5-8.81L78.35,129.69h0L62.82,102.78"/></svg>